<svg width="512" height="512" viewBox="0 0 512 512" fill="none" xmlns="http://www.w3.org/2000/svg" role="img" aria-label="Lemongrass plant">
  <defs>
    <linearGradient id="pot" x1="148" y1="300" x2="364" y2="458" gradientUnits="userSpaceOnUse">
      <stop stop-color="#60A5FA" stop-opacity="0.78"/>
      <stop offset="1" stop-color="#A7F3D0" stop-opacity="0.58"/>
    </linearGradient>
    <linearGradient id="grass" x1="190" y1="130" x2="330" y2="340" gradientUnits="userSpaceOnUse">
      <stop stop-color="#22C55E" stop-opacity="0.95"/>
      <stop offset="1" stop-color="#86EFAC" stop-opacity="0.75"/>
    </linearGradient>
    <linearGradient id="mud" x1="150" y1="420" x2="360" y2="500" gradientUnits="userSpaceOnUse">
      <stop stop-color="#92400E" stop-opacity="0.85"/>
      <stop offset="1" stop-color="#A16207" stop-opacity="0.65"/>
    </linearGradient>
    <filter id="shadow" x="-40" y="-40" width="592" height="592" filterUnits="userSpaceOnUse" color-interpolation-filters="sRGB">
      <feDropShadow dx="0" dy="18" stdDeviation="16" flood-color="#0F172A" flood-opacity="0.18"/>
    </filter>
  </defs>

  <rect x="28" y="28" width="456" height="456" rx="48" fill="#ECFDF5" />

  <!-- mud -->
  <path d="M120 418 C150 388, 196 372, 250 372 C318 372, 368 398, 398 438 C356 468, 308 482, 250 482 C196 482, 150 462, 120 418Z"
        fill="url(#mud)" opacity="0.82"/>

  <!-- pot -->
  <g filter="url(#shadow)">
    <path d="M256 430 C196 430, 156 392, 156 344 L156 318 H356 L356 344 C356 392, 316 430, 256 430Z" fill="url(#pot)"/>
    <path d="M156 318 C156 294, 176 274, 200 274 H312 C336 274, 356 294, 356 318 Z" fill="#0B1220" opacity="0.10"/>
  </g>

  <!-- lemongrass blades -->
  <g stroke="url(#grass)" stroke-width="14" stroke-linecap="round" opacity="0.95">
    <path d="M256 312 C236 260, 220 220, 198 172" />
    <path d="M256 312 C248 252, 246 212, 238 156" />
    <path d="M256 312 C266 252, 274 212, 286 150" />
    <path d="M256 312 C278 260, 300 220, 326 176" />
    <path d="M256 312 C214 270, 182 236, 150 206" opacity="0.9"/>
    <path d="M256 312 C298 270, 330 236, 364 206" opacity="0.9"/>
  </g>
</svg>

